<?xml version="1.0" encoding="utf-8"?>
<!-- Generator: Adobe Illustrator 18.1.1, SVG Export Plug-In . SVG Version: 6.00 Build 0)  -->
<svg version="1.1" id="Layer_1" xmlns="http://www.w3.org/2000/svg" xmlns:xlink="http://www.w3.org/1999/xlink" x="0px" y="0px"
	 viewBox="107 262.1 397.2 288.3" enable-background="new 107 262.1 397.2 288.3" xml:space="preserve">
<g id="Layer_2">
</g>
<g id="Layer_1_1_">
	<path opacity="0.41" fill="#FFFFFF" enable-background="new    " d="M416.5,283c12.2,0,23,0.3,31.9,3.6c-1.8-0.3-3.6-0.4-5.4-0.4
		c-17.1,0-34.4,14.2-34.4,46.1c0,16.3,7.8,27.5,15.3,38.4c8.5,12.2,17.2,24.9,17.2,47.7c0,36.8-20,94.6-26.9,113.4H294.1
		c-6.9-18.8-26.9-76.6-26.9-113.4c0-22.8,8.7-35.5,17.2-47.7c7.5-10.8,15.3-22.1,15.3-38.4c0-27.6-13-42-27.6-45.4
		c4.6-2.3,11.2-3.8,16.3-3.8h115.9c2.1,0,4.2,0,6.3,0C412.6,283,414.5,283,416.5,283"/>
	<polyline opacity="0.41" fill="#FFFFFF" enable-background="new    " points="236.6,366.1 228.9,532.2 173.4,532.2 165.6,366.1 
		236.6,366.1 	"/>
	<g>
		<path fill="#FFFFFF" d="M260,303.4c1.7-0.5,3.4-0.9,5-0.9c9.9,0,16.2,10.7,16.2,27.9c0,10.6-5.3,18.4-12.1,28.2
			c-9.2,13.3-20.7,29.9-20.7,58.8c0,48,29.4,124.1,30.7,127.4l2.2,5.6h6.1H422h6.1l2.2-5.6c1.1-2.7,21.7-56,28.5-101.5
			c3.8,3.7,8.3,5.7,13,5.7c3.3,0,6.5-1.1,9.3-3c4.5-3.1,6.6-8,5.7-13.4c-0.5-3.2-1.9-6-3.2-8.7c-1-1.9-2.1-4.2-2.2-5.5
			c0.4-2.1,3.4-8.3,5.8-13.3c7.1-14.9,17-35.3,17-53.9c0-27.4-10-52.8-28.2-71.4c-15.8-16.4-36.8-17.7-58.5-17.7c-2,0-4,0-6.2,0
			c-2,0-4.1,0-6.3,0H288c-8.4,0-26.6,3-35.5,14.5c-4.6,5.8-6.1,13-4.1,20.5C250.2,303.7,251.7,306.4,260,303.4z M472.6,418
			c0,8.2,9.8,16.1,3.5,20.5c-9.5,6.6-19.5-10.6-19.5-22.1s11.5-26.6,19.5-52.3c8-25.7-7.1-60.2-24-69.1
			c-15.9-5.3-32.8,5.3-32.8,35.5s32.8,39.8,32.8,86.8S422,541.5,422,541.5H287.2c0,0-30.1-77.1-30.1-124.1s32.8-56.7,32.8-86.8
			S273,289.7,257.1,295c-4.5-17.7,19.4-23.9,31-23.9c11.5,0,94.8,0,117,0c25.4,0,48.6-1.6,64.6,14.8s25.6,39.2,25.6,65.2
			C495.3,377,472.6,409.7,472.6,418z M440.2,358.5c-6.8-9.8-12.1-17.5-12.1-28.2c0-17.2,6.2-27.9,16.2-27.9c1.4,0,2.9,0.2,4.4,0.6
			c6.1,3.5,12.5,12.5,16.5,23.2c4.7,12.4,5.6,25.2,2.5,35.2c-3.4,10.8-7.3,19.7-10.9,27.4C452.4,376.1,445.9,366.7,440.2,358.5z"/>
		<path fill="#FFEF94" d="M284.3,369.1c-8.5,12.3-17.3,25.1-17.3,48.1c0,37.1,20.2,95.4,27.1,114.4h121.2
			c6.9-19,27.1-77.4,27.1-114.4c0-23.1-8.8-35.8-17.4-48.1c-4.2-6.2-8.5-12.3-11.5-19.6H295.8C292.8,356.8,288.5,363,284.3,369.1z"
			/>
		<path fill="#FFFFFF" d="M358,378.2c-2-2-5.4-2-7.5,0L333,395.7c-2,2-2,5.4,0,7.5l17.5,17.5c2,2,5.4,2,7.5,0l17.5-17.5
			c2-2,2-5.4,0-7.5L358,378.2z"/>
		<path fill="#FFFFFF" d="M412.2,378.2c-2-2-5.4-2-7.5,0l-17.5,17.5c-2,2-2,5.4,0,7.5l17.5,17.5c2,2,5.4,2,7.5,0l17.5-17.5
			c2-2,2-5.4,0-7.5L412.2,378.2z"/>
		<path fill="#FFFFFF" d="M303.7,378.2c-2-2-5.4-2-7.5,0l-17.5,17.5c-2,2-2,5.4,0,7.5l17.5,17.5c2,2,5.4,2,7.5,0l17.5-17.5
			c2-2,2-5.4,0-7.5L303.7,378.2z"/>
		<g>
			<path fill="#FFFFFF" d="M306.1,357.3c-2,2-2,5.4,0,7.5l17.5,17.5c2,2,5.4,2,7.5,0l17.5-17.5c2-2,2-5.4,0-7.5l-7.8-7.8h-27.2
				L306.1,357.3z"/>
		</g>
		<g>
			<path fill="#FFFFFF" d="M360.5,357.3c-2,2-2,5.4,0,7.5l17.5,17.5c2,2,5.4,2,7.5,0l17.5-17.5c2-2,2-5.4,0-7.5l-7.8-7.8H368
				L360.5,357.3z"/>
		</g>
		<path fill="#FFFFFF" d="M331.2,459.2c-2,2-5.4,2-7.5,0l-17.5-17.5c-2-2-2-5.4,0-7.5l17.5-17.5c2-2,5.4-2,7.5,0l17.5,17.5
			c2,2,2,5.4,0,7.5L331.2,459.2z"/>
		<path fill="#FFFFFF" d="M385.5,459.2c-2,2-5.4,2-7.5,0l-17.5-17.5c-2-2-2-5.4,0-7.5l17.5-17.5c2-2,5.4-2,7.5,0l17.5,17.5
			c2,2,2,5.4,0,7.5L385.5,459.2z"/>
		<path fill="#FFE800" d="M321.7,398.8c21.5,0,38.8,17.3,38.8,38.8s-17.4,38.8-38.8,38.8c-21.5,0-38.8-17.3-38.8-38.8
			C282.9,416.1,300.4,398.8,321.7,398.8 M321.7,393.9c-24.1,0-43.7,19.5-43.7,43.7c0,24.1,19.5,43.7,43.7,43.7
			c24.1,0,43.7-19.6,43.7-43.7C365.4,413.4,345.8,393.9,321.7,393.9z M318.6,433.3l-8.9-27.4c-5.7,2.1-10.6,5.8-14.5,10.5
			L318.6,433.3z M324.8,433.3l23.3-16.9c-3.7-4.7-8.7-8.3-14.5-10.5L324.8,433.3z M355.6,439.1h-28.8l23.3,16.9
			C353.3,451.2,355.3,445.4,355.6,439.1z M326.7,436h28.8c-0.3-6.3-2.3-12-5.5-16.9L326.7,436z M321.7,432.2l8.9-27.4
			c-2.9-0.7-5.8-1.2-8.9-1.2s-6.1,0.4-8.9,1.2L321.7,432.2z M324.8,441.8l8.9,27.4c5.7-2.1,10.6-5.8,14.5-10.5L324.8,441.8z
			 M321.7,442.9l-8.9,27.4c2.9,0.7,5.8,1.2,8.9,1.2s6.1-0.4,8.9-1.2L321.7,442.9z M293.5,419c-3.2,4.9-5.2,10.7-5.5,16.9h28.8
			L293.5,419z M316.7,439.1h-28.8c0.3,6.3,2.3,12,5.5,16.9L316.7,439.1z M318.6,441.8l-23.3,17c3.7,4.7,8.7,8.3,14.5,10.5
			L318.6,441.8z"/>
		<path fill="#FFFFFF" d="M321.7,398.8c-21.5,0-38.8,17.3-38.8,38.8s17.3,38.8,38.8,38.8s38.8-17.3,38.8-38.8
			C360.5,416.1,343.2,398.8,321.7,398.8z M350.1,419c3.2,4.9,5.2,10.7,5.5,17h-28.8L350.1,419z M348.2,416.3l-23.3,16.9l8.9-27.4
			C339.5,408,344.5,411.7,348.2,416.3z M321.7,403.7c3.1,0,6.1,0.4,8.9,1.2l-8.9,27.4l-8.9-27.4
			C315.7,404.1,318.6,403.7,321.7,403.7z M309.7,405.9l8.9,27.4l-23.3-17C299.1,411.7,304.1,408,309.7,405.9z M316.7,436h-28.8
			c0.3-6.3,2.3-12,5.5-16.9L316.7,436z M293.5,456.1c-3.2-4.9-5.2-10.7-5.5-16.9h28.8L293.5,456.1z M295.4,458.8l23.3-16.9
			l-8.9,27.4C304.1,467.1,299.1,463.5,295.4,458.8z M321.7,471.4c-3.1,0-6.1-0.4-8.9-1.2l8.9-27.4l8.9,27.4
			C327.8,471,324.8,471.4,321.7,471.4z M333.7,469.2l-8.9-27.4l23.3,16.9C344.5,463.5,339.5,467.1,333.7,469.2z M326.7,439.1h28.8
			c-0.3,6.3-2.2,12-5.5,16.9L326.7,439.1z"/>
		<path fill="#FFE800" d="M377.1,440.6c21.5,0,38.8,17.3,38.8,38.8s-17.3,38.8-38.8,38.8s-38.8-17.3-38.8-38.8
			C338.3,458,355.6,440.6,377.1,440.6 M377.1,435.7c-24.1,0-43.7,19.5-43.7,43.7s19.6,43.7,43.7,43.7s43.7-19.5,43.7-43.7
			C420.8,455.4,401.2,435.7,377.1,435.7z M374,475.2l-8.9-27.4c-5.7,2.1-10.6,5.8-14.5,10.5L374,475.2z M380.2,475.2l23.3-16.9
			c-3.7-4.7-8.7-8.3-14.5-10.5L380.2,475.2z M411,481.1h-28.8l23.4,16.9C408.6,493.1,410.7,487.3,411,481.1z M382.1,477.8h28.8
			c-0.3-6.3-2.3-12-5.5-16.9L382.1,477.8z M377.1,474.2l8.9-27.4c-2.9-0.7-5.8-1.2-8.9-1.2s-6.1,0.4-8.9,1.2L377.1,474.2z
			 M380.2,483.7l8.9,27.4c5.7-2.1,10.6-5.8,14.4-10.5L380.2,483.7z M377.1,484.7l-8.9,27.4c2.9,0.7,5.8,1.2,8.9,1.2s6.1-0.4,8.9-1.2
			L377.1,484.7z M348.7,460.8c-3.2,4.9-5.2,10.7-5.5,16.9H372L348.7,460.8z M372.1,481.1h-28.9c0.3,6.3,2.3,12,5.5,16.9L372.1,481.1
			z M374,483.7l-23.4,17c3.7,4.7,8.7,8.3,14.5,10.5L374,483.7z"/>
		<path fill="#FFFFFF" d="M377.1,440.6c-21.5,0-38.8,17.3-38.8,38.8s17.3,38.8,38.8,38.8s38.8-17.3,38.8-38.8
			C415.9,458,398.5,440.6,377.1,440.6z M405.5,460.8c3.2,4.9,5.2,10.7,5.5,16.9h-28.8L405.5,460.8z M403.4,458.3l-23.3,16.9
			l8.9-27.4C394.8,449.9,399.7,453.6,403.4,458.3z M377.1,445.5c3.1,0,6.1,0.4,8.9,1.2l-8.9,27.4l-8.9-27.4
			C371,445.9,374,445.5,377.1,445.5z M365.1,447.7l8.9,27.4l-23.4-16.9C354.5,453.6,359.3,449.9,365.1,447.7z M372.1,477.8h-28.9
			c0.3-6.3,2.2-12,5.5-16.9L372.1,477.8z M348.7,498c-3.2-4.9-5.2-10.7-5.5-16.9H372L348.7,498z M350.6,500.7l23.3-16.9l-8.9,27.4
			C359.3,508.9,354.5,505.3,350.6,500.7z M377.1,513.3c-3.1,0-6.1-0.4-8.9-1.2l8.9-27.4l8.9,27.4
			C383.1,512.9,380.2,513.3,377.1,513.3z M389.1,511.2l-8.9-27.4l23.3,16.9C399.7,505.3,394.8,508.9,389.1,511.2z M382.1,481.1h28.8
			c-0.3,6.3-2.2,12-5.5,16.9L382.1,481.1z"/>
	</g>
	<g>
		<polygon fill="#FFEF94" points="166,399.5 172.2,532.2 228.2,532.2 234.4,399.5 		"/>
		<g>
			<path fill="#FFFFFF" d="M182.6,435.1c2,2,5.4,2,7.5,0l17.5-17.5c2-2,2-5.4,0-7.5l-10.5-10.5h-21.6l-9.1,9.1l0.5,10.7L182.6,435.1
				z"/>
		</g>
		<path fill="#FFFFFF" d="M194.5,439.2l4.4,15l-3,15.1l-4.4-15L194.5,439.2z M212.6,383l-4.4-15l-3,15.1l4.4,15L212.6,383z
			 M203.5,430.5l-4.4-15l-3,15.2l0,0l4.4,15L203.5,430.5z M223.8,288.4l4.4,15l2.9-14.6l-6.9-1.4l-0.2,1.2L223.8,288.4z
			 M203.7,391.9l-3,15.1l4.4,15l3-15.1L203.7,391.9z M178.1,524l6.9,1.4l-4.4-15L178.1,524z M186.7,516.8l3-15.1l-4.4-15l0,0
			l-3,15.1L186.7,516.8z M194.2,477.9l-4.4-15l-3,15.1l4.4,15L194.2,477.9z M221.9,335.6l-4.4-15l-3,15.1l4.4,15l3-15.2V335.6z
			 M222.1,297l-3,15.1l4.4,15l3-15.1L222.1,297z M217.3,359.3l-4.4-15l-3,15.2v-0.1l4.4,15L217.3,359.3z"/>
		<g>
			<path fill="#FFFFFF" d="M216.9,430.8c-2-2-5.4-2-7.5,0l-17.5,17.5c-2,2-2,5.4,0,7.5l17.5,17.5c2,2,5.4,2,7.5,0l14.8-14.8
				l0.6-12.5L216.9,430.8z"/>
		</g>
		<path fill="#FFFFFF" d="M245.3,346.9H155h-9.2l0.4,9.2l8.7,185.3l0.4,8.5h8.5h72.9h8.5l0.4-8.5l8.7-185.3l0.4-9.2L245.3,346.9
			L245.3,346.9z M236.6,541.1h-72.9L155,355.8h90.3L236.6,541.1z"/>
		<path fill="#FEF07F" d="M154.5,310.4c-26.1,0-47.5,21.2-47.5,47.5c0,20.4,13,37.9,31.1,44.5l1.6-5.1l1.7-5.1l9.7-29.8l3.4-10.4
			l9.7-29.8l1.6-5.1l1.6-5.1C163.3,311,159,310.4,154.5,310.4z"/>
		<path fill="#FFE800" d="M151.1,353.2l-9.7-29.8c-6.2,2.3-11.6,6.3-15.6,11.4L151.1,353.2z M154.5,352l9.7-29.8
			c-3.1-0.9-6.4-1.3-9.7-1.3c-3.4,0-6.6,0.4-9.7,1.3L154.5,352z M123.7,337.6c-3.5,5.3-5.6,11.6-5.9,18.4h31.3L123.7,337.6z
			 M149,359.6h-31.3c0.3,6.8,2.4,13.1,6,18.4L149,359.6z M151.1,362.4l-25.3,18.4c4,5.1,9.5,9,15.6,11.4L151.1,362.4z"/>
		<path fill="#FFE800" d="M139.7,397.3l-1.6,5.1c-18.2-6.7-31.1-24.1-31.1-44.5c0-26.1,21.2-47.5,47.5-47.5c4.5,0,8.8,0.6,13,1.8
			l-1.6,5.1c-3.6-1-7.4-1.6-11.4-1.6c-23.3,0-42.2,18.9-42.2,42.2C112.3,375.9,123.8,391.3,139.7,397.3z"/>
		<path fill="#FFFFFF" d="M154.5,315.7c-23.3,0-42.2,18.9-42.2,42.2c0,18.1,11.4,33.6,27.4,39.5l1.7-5.1
			c-6.2-2.3-11.6-6.4-15.6-11.4l25.3-18.4l3.4-10.4l-9.7-29.8c3.1-0.9,6.4-1.3,9.7-1.3c3.4,0,6.6,0.4,9.7,1.3l1.6-5.1
			C162.1,316.2,158.4,315.7,154.5,315.7z M123.7,377.9L123.7,377.9c-3.5-5.3-5.6-11.6-5.9-18.4h31.3L123.7,377.9z M117.7,356
			L117.7,356c0.3-6.8,2.4-13.1,5.9-18.4L149,356H117.7z M151.1,353.2l-25.3-18.4c4-5.1,9.5-9,15.6-11.4L151.1,353.2z"/>
	</g>
</g>
</svg>
